<svg width="129" height="24" viewBox="0 0 129 24" fill="none" xmlns="http://www.w3.org/2000/svg">
<path d="M29.5913 14.3284L23.629 3.93216L27.1036 1.19711C27.3145 1.03146 27.392 0.508279 27.1125 0.229411C26.8878 0.00536276 26.3814 0 25.9136 0H20.1575C20.0085 0 19.4549 0.159694 19.0962 0.524368C18.7643 0.861632 18.6231 1.39673 18.5701 1.588L16.8885 7.62717L1.0818 0.106661C0.810677 -0.0226436 0.493672 0.0875931 0.273199 0.294957C0.0348503 0.516026 -0.0873034 0.847927 0.0717946 1.11667L13.1911 23.1848C13.5486 23.7872 13.7941 23.8611 14.1761 23.9594C14.8244 24.1269 15.3381 23.7574 16.3087 23.1902L26.9599 16.9627C27.2728 16.7798 28.7881 15.9497 29.4155 15.3372C29.9048 14.8569 29.6336 14.4022 29.5913 14.3284Z" fill="white"/>
<path d="M14.4061 22.9608L1.78491 1.72565L16.932 8.93273L16.6043 10.0863L4.69635 4.40112L14.4758 20.6226L19.8929 1.16136H25.2742L19.9614 5.3414L15.5806 20.9127L26.8455 14.4177L21.4922 4.9815L22.4676 4.23606L28.486 14.7234L14.4061 22.9608ZM20.8117 2.32152L20.4894 3.46739L21.9194 2.32152H20.8117Z" fill="black"/>
<path fill-rule="evenodd" clip-rule="evenodd" d="M72.5072 13.0933C72.5049 13.8654 72.1965 14.605 71.6495 15.1499C71.1025 15.6949 70.3617 16.0006 69.5896 16H66.672V8.00002H69.5787C69.9622 7.99859 70.3423 8.07278 70.6971 8.21835C71.0519 8.36392 71.3745 8.57802 71.6465 8.8484C71.9185 9.11877 72.1346 9.44012 72.2822 9.79405C72.4299 10.148 72.5064 10.5276 72.5072 10.9111V13.0933ZM71.019 10.9111C71.0167 10.5321 70.8651 10.1693 70.5972 9.90138C70.3292 9.63341 69.9664 9.48185 69.5875 9.47956H68.169V14.4986H69.5875C69.9643 14.497 70.3255 14.3474 70.5932 14.0821C70.861 13.8168 71.0138 13.4571 71.019 13.0802V10.9111Z" fill="white"/>
<path fill-rule="evenodd" clip-rule="evenodd" d="M56.0643 15.9935L54.611 12.7463H52.9416V15.9935H51.4533V8.00003H54.9448C55.2548 8.00145 55.5614 8.06407 55.8471 8.18427C56.1328 8.30447 56.392 8.47988 56.6097 8.70047C56.8275 8.92105 56.9995 9.18247 57.116 9.4697C57.2325 9.75693 57.2911 10.0643 57.2885 10.3743C57.2865 10.7913 57.1767 11.2006 56.9698 11.5627C56.763 11.9248 56.4661 12.2273 56.108 12.4408L57.7097 15.9956L56.0643 15.9935ZM54.9514 9.48829H52.9416V11.2472H54.9514C55.064 11.2455 55.1752 11.2215 55.2785 11.1766C55.3818 11.1317 55.4752 11.0669 55.5533 10.9857C55.6314 10.9046 55.6926 10.8088 55.7335 10.7038C55.7744 10.5989 55.7941 10.4869 55.7915 10.3743C55.7951 10.1461 55.7092 9.92556 55.5522 9.75995C55.3951 9.59435 55.1795 9.49682 54.9514 9.48829Z" fill="white"/>
<path fill-rule="evenodd" clip-rule="evenodd" d="M45.4915 15.9935H42V8.00003H45.4915C46.1145 8.00694 46.7093 8.26046 47.1458 8.70507C47.5822 9.14967 47.8246 9.74912 47.8199 10.3721C47.8179 10.9735 47.5915 11.5525 47.1849 11.9957C47.5913 12.4389 47.8177 13.0178 47.8199 13.6192C47.8234 13.9281 47.7659 14.2347 47.6506 14.5213C47.5354 14.8079 47.3648 15.069 47.1485 15.2896C46.9322 15.5101 46.6745 15.6858 46.3901 15.8066C46.1058 15.9274 45.8004 15.9909 45.4915 15.9935ZM45.4915 9.4883H43.4817V11.2472H45.4915C45.6041 11.2455 45.7153 11.2215 45.8186 11.1766C45.9219 11.1317 46.0153 11.0669 46.0934 10.9857C46.1715 10.9046 46.2328 10.8088 46.2737 10.7038C46.3146 10.5989 46.3343 10.4869 46.3317 10.3743C46.3353 10.1461 46.2493 9.92556 46.0923 9.75995C45.9352 9.59435 45.7196 9.49683 45.4915 9.4883ZM45.4915 12.7463H43.4817V14.5052H45.4915C45.7196 14.4967 45.9352 14.3992 46.0923 14.2335C46.2493 14.0679 46.3353 13.8474 46.3317 13.6192C46.3343 13.5066 46.3146 13.3946 46.2737 13.2897C46.2328 13.1847 46.1715 13.0889 46.0934 13.0078C46.0153 12.9266 45.9219 12.8618 45.8186 12.8169C45.7153 12.772 45.6041 12.748 45.4915 12.7463Z" fill="white"/>
<path d="M61.2165 8.00003V15.9935H62.7048V8.00003H61.2165Z" fill="white"/>
<path d="M83.7238 15.9935H85.0331C85.3164 15.9903 85.5964 15.9314 85.8569 15.82C86.1174 15.7086 86.3534 15.5469 86.5514 15.3443C86.7495 15.1416 86.9056 14.9019 87.0109 14.6388C87.1162 14.3758 87.1686 14.0946 87.1651 13.8112C87.1651 12.5958 86.2224 11.8822 85.0877 11.7229L85.0865 11.7227C84.6504 11.666 84.2144 11.6093 83.7784 11.5418C83.0517 11.4392 82.3359 11.0202 82.3359 10.2019C82.3295 9.82715 82.4716 9.4651 82.7312 9.19483C82.9909 8.92456 83.3469 8.76804 83.7216 8.75944H85.0309C85.3189 8.76447 85.5982 8.85896 85.8301 9.02984C86.0619 9.20071 86.2349 9.43949 86.325 9.71307L87.0407 9.4752C86.8993 9.05261 86.6298 8.68456 86.2697 8.42215C85.9095 8.15974 85.4765 8.01602 85.0309 8.01095H83.7216C83.4382 8.01408 83.1582 8.07301 82.8975 8.18438C82.6369 8.29574 82.4007 8.45736 82.2025 8.66C82.0043 8.86264 81.848 9.10234 81.7425 9.3654C81.6369 9.62846 81.5842 9.90973 81.5874 10.1932C81.5874 11.4086 82.541 12.1222 83.6758 12.2815L83.877 12.3085C84.2352 12.3565 84.6025 12.4057 84.9698 12.4626C85.6965 12.5652 86.4123 12.9973 86.4123 13.8025C86.4169 13.9876 86.385 14.1717 86.3184 14.3444C86.2518 14.5171 86.1518 14.6749 86.0241 14.8089C85.8964 14.9429 85.7435 15.0504 85.5742 15.1252C85.4049 15.2 85.2225 15.2407 85.0375 15.245H83.7282C83.4362 15.2423 83.1525 15.1477 82.9174 14.9746C82.6824 14.8014 82.5079 14.5585 82.4188 14.2804L81.7031 14.5292C81.8457 14.9532 82.117 15.3221 82.4792 15.5846C82.8414 15.8471 83.2765 15.99 83.7238 15.9935Z" fill="white"/>
<path d="M93.1182 8.75071V15.9956H92.3697V8.75071H89.9496V8.00221H95.5252V8.75071H93.1182Z" fill="white"/>
<path d="M103.389 15.1715C103.912 14.6487 104.206 13.9396 104.206 13.2002V8.00003H103.455V13.2002C103.455 13.7408 103.241 14.2592 102.858 14.6414C102.476 15.0237 101.958 15.2384 101.417 15.2384C100.877 15.2384 100.358 15.0237 99.9759 14.6414C99.5937 14.2592 99.379 13.7408 99.379 13.2002V8.00003H98.6305V13.2002C98.6305 13.9396 98.9242 14.6487 99.447 15.1715C99.9698 15.6943 100.679 15.988 101.418 15.988C102.158 15.988 102.867 15.6943 103.389 15.1715Z" fill="white"/>
<path fill-rule="evenodd" clip-rule="evenodd" d="M113.888 13.2002C113.89 13.9395 113.597 14.649 113.075 15.1728C112.554 15.6965 111.845 15.9917 111.106 15.9935H108.313V8.00003H111.106C111.845 8.00176 112.554 8.29696 113.075 8.82073C113.597 9.34449 113.89 10.054 113.888 10.7933V13.2002ZM113.14 10.7998C113.14 10.5329 113.088 10.2686 112.986 10.022C112.884 9.77537 112.734 9.5513 112.546 9.36259C112.357 9.17388 112.133 9.02423 111.886 8.92223C111.64 8.82023 111.375 8.76788 111.108 8.76817H109.064V15.2515H111.108C111.649 15.2492 112.166 15.0326 112.547 14.6493C112.928 14.2659 113.141 13.7472 113.14 13.2068V10.7998Z" fill="white"/>
<path d="M117.864 8.00003V15.9935H118.609V8.00003H117.864Z" fill="white"/>
<path fill-rule="evenodd" clip-rule="evenodd" d="M128.162 13.2002C128.162 13.9396 127.869 14.6487 127.346 15.1715C126.823 15.6943 126.114 15.988 125.374 15.988C124.635 15.988 123.926 15.6943 123.403 15.1715C122.88 14.6487 122.587 13.9396 122.587 13.2002V10.7998C122.587 10.0604 122.88 9.35136 123.403 8.82855C123.926 8.30575 124.635 8.01204 125.374 8.01204C126.114 8.01204 126.823 8.30575 127.346 8.82855C127.869 9.35136 128.162 10.0604 128.162 10.7998V13.2002ZM127.414 10.7998C127.414 10.2592 127.199 9.74082 126.817 9.35859C126.435 8.97636 125.916 8.76162 125.376 8.76162C124.835 8.76162 124.317 8.97636 123.934 9.35859C123.552 9.74082 123.337 10.2592 123.337 10.7998V13.2002C123.337 13.7408 123.552 14.2592 123.934 14.6414C124.317 15.0237 124.835 15.2384 125.376 15.2384C125.916 15.2384 126.435 15.0237 126.817 14.6414C127.199 14.2592 127.414 13.7408 127.414 13.2002V10.7998Z" fill="white"/>
</svg>
