<?xml version="1.0" encoding="UTF-8" standalone="no"?><!DOCTYPE svg PUBLIC "-//W3C//DTD SVG 1.1//EN" "http://www.w3.org/Graphics/SVG/1.1/DTD/svg11.dtd"><svg width="100%" height="100%" viewBox="0 0 1250 667" version="1.1" xmlns="http://www.w3.org/2000/svg" xmlns:xlink="http://www.w3.org/1999/xlink" xml:space="preserve" xmlns:serif="http://www.serif.com/" style="fill-rule:evenodd;clip-rule:evenodd;stroke-linejoin:round;stroke-miterlimit:2;"><rect id="Logo-AmadiaClothing" x="0" y="0" width="1250" height="666.667" style="fill:none;"/><g id="Logo-AmadiaClothing1" serif:id="Logo-AmadiaClothing"><rect x="0" y="0" width="1250" height="666.667" style="fill:#fef7ef;"/><path d="M721.208,583.333c-2.894,0 -5.378,-1.027 -7.452,-3.08c-2.073,-2.054 -3.11,-4.567 -3.11,-7.54c0,-2.993 1.052,-5.511 3.154,-7.555c2.103,-2.044 4.631,-3.066 7.585,-3.066c1.721,-0 3.334,0.376 4.84,1.129c1.507,0.753 2.758,1.785 3.756,3.096l-2.083,1.555c-0.743,-1.037 -1.687,-1.858 -2.831,-2.465c-1.145,-0.606 -2.372,-0.909 -3.682,-0.909c-2.211,-0 -4.103,0.792 -5.678,2.376c-1.574,1.584 -2.361,3.531 -2.361,5.839c-0,2.288 0.772,4.229 2.317,5.823c1.546,1.594 3.394,2.392 5.545,2.392c1.937,-0 3.502,-0.548 4.695,-1.643c1.193,-1.096 1.917,-2.524 2.171,-4.284l-5.545,0l-0,-2.406l8.449,0l0,0.851c0,2.934 -0.934,5.315 -2.801,7.144c-1.868,1.829 -4.191,2.743 -6.969,2.743Zm-191.085,-21.241c2.895,-0 5.389,0.988 7.482,2.963l-1.819,1.819c-1.546,-1.584 -3.433,-2.376 -5.663,-2.376c-2.21,-0 -4.102,0.792 -5.677,2.376c-1.574,1.584 -2.362,3.531 -2.362,5.839c0,2.308 0.788,4.254 2.362,5.838c1.575,1.584 3.467,2.377 5.677,2.377c2.23,-0 4.117,-0.793 5.663,-2.377l1.819,1.819c-2.093,1.976 -4.587,2.963 -7.482,2.963c-2.953,0 -5.481,-1.022 -7.584,-3.066c-2.103,-2.044 -3.154,-4.562 -3.154,-7.554c0,-2.993 1.051,-5.511 3.154,-7.555c2.103,-2.044 4.631,-3.066 7.584,-3.066Zm165.737,21.241l-13.526,-15.285l0,14.933l-2.699,0l0,-20.684l0.704,-0.205l13.525,15.286l0,-14.934l2.7,-0l-0,20.684l-0.704,0.205Zm-119.176,-3.051c-2.093,-2.054 -3.139,-4.577 -3.139,-7.569c0,-2.993 1.051,-5.511 3.154,-7.555c2.103,-2.044 4.631,-3.066 7.584,-3.066c2.954,-0 5.482,1.022 7.584,3.066c2.103,2.044 3.154,4.562 3.154,7.555c0,2.992 -1.051,5.51 -3.154,7.554c-2.102,2.044 -4.63,3.066 -7.584,3.066c-2.953,0 -5.486,-1.017 -7.599,-3.051Zm84.996,-17.838l2.699,-0l-0,20.537l-2.699,0l-0,-20.537Zm-110.286,-0l2.699,-0l0,18.131l7.863,0l0,2.406l-10.562,0l0,-20.537Zm55.069,2.406l0,-2.406l12.675,-0l-0,2.406l-4.988,-0l0,18.131l-2.699,0l0,-18.131l-4.988,-0Zm37.261,-2.406l2.699,-0l0,20.537l-2.699,0l0,-10.034l-8.684,0l-0,10.034l-2.7,0l0,-20.537l2.7,-0l-0,8.098l8.684,-0l0,-8.098Zm-65.133,4.43c-1.564,1.584 -2.347,3.531 -2.347,5.839c0,2.308 0.787,4.254 2.362,5.838c1.575,1.584 3.467,2.377 5.677,2.377c2.21,-0 4.103,-0.793 5.677,-2.377c1.575,-1.584 2.362,-3.53 2.362,-5.838c0,-2.308 -0.787,-4.255 -2.362,-5.839c-1.574,-1.584 -3.467,-2.376 -5.677,-2.376c-2.21,-0 -4.107,0.792 -5.692,2.376Zm-216.894,-36.656l28.077,-62.052l6.513,0l28.078,62.052l-7.482,0l-7.217,-16.283l-33.534,0l-7.306,16.283l-7.129,0Zm413.416,0l0,-61.612l6.954,0l-0,61.612l-6.954,0Zm-100.251,0l-0,-61.612l21.388,0c9.564,0 17.413,2.919 23.544,8.758c6.132,5.838 9.198,13.129 9.198,21.872l0,0.176c0,8.802 -3.066,16.137 -9.198,22.004c-6.131,5.868 -13.98,8.802 -23.544,8.802l-21.388,0Zm-207.545,0l0,-61.612l7.042,0l22.444,33.623l22.444,-33.623l7.042,0l-0,61.612l-6.954,0l0,-49.906l-22.444,33.007l-0.352,-0l-22.444,-32.919l-0,49.818l-6.778,0Zm101.924,0l28.078,-62.052l6.513,0l28.077,62.052l-7.481,0l-7.218,-16.283l-33.534,0l-7.305,16.283l-7.13,0Zm256.394,0l28.078,-62.052l6.513,0l28.077,62.052l-7.481,0l-7.218,-16.283l-33.534,0l-7.306,16.283l-7.129,0Zm-129.385,-55.187l-14.435,0l0,48.762l14.435,-0c7.687,-0 13.863,-2.288 18.527,-6.865c4.665,-4.577 6.998,-10.357 6.998,-17.34l-0,-0.176c-0,-6.982 -2.347,-12.792 -7.042,-17.427c-4.694,-4.636 -10.855,-6.954 -18.483,-6.954Zm-317.39,32.655l28.078,-0l-13.995,-31.422l-14.083,31.422Zm207.544,-0l28.078,-0l-13.995,-31.422l-14.083,31.422Zm256.394,-0l28.078,-0l-13.995,-31.422l-14.083,31.422Z" style="fill:#868374;fill-rule:nonzero;"/><path d="M625,83.333c86.9,0 157.452,70.552 157.452,157.452c-0,86.9 -70.552,157.452 -157.452,157.452c-86.9,0 -157.452,-70.552 -157.452,-157.452c0,-86.9 70.552,-157.452 157.452,-157.452Zm-25.734,88.121c0.91,-0.941 1.865,-1.892 2.869,-2.861c5.89,-5.684 15.384,-10.034 23.776,-10.194c4.527,-0.086 8.74,1.026 12.046,3.602c3.303,2.575 5.769,6.629 6.59,12.645c1.476,10.816 -2.756,21.78 -9.137,30.57c4.561,7.576 9.172,16.626 13.8,27.382c17.893,41.577 33.845,58.944 48.021,65.282c0.607,0.271 1.233,0.517 1.871,0.739c3.216,-1.879 6.26,-3.784 9.086,-5.659c9.941,-6.594 21.08,-15.991 22.429,-28.817c0.156,-1.487 1.491,-2.568 2.979,-2.412c1.487,0.157 2.568,1.492 2.412,2.979c-1.519,14.439 -13.633,25.344 -24.824,32.767c-1.421,0.943 -2.895,1.892 -4.417,2.842c4.627,0.577 8.396,0.398 8.396,0.398c1.494,-0.066 2.761,1.094 2.827,2.588c0.066,1.494 -1.094,2.761 -2.588,2.827c-0,-0 -8.039,0.33 -15.612,-1.659c-13.551,7.691 -29.798,14.747 -45.791,17.486c-21.458,3.675 -42.432,-0.356 -56.359,-20.219c-10.7,-15.263 -16.616,-29.119 -19.501,-47.585c-2.859,-18.305 -1.356,-33.566 3.584,-51.324c3.146,-11.307 6.864,-18.984 13.337,-26.723c-6.293,-0.971 -12.122,0.46 -17.368,3.111c-18.495,9.345 -24.869,32.49 -26.119,46.651c-4.311,48.88 7.995,88.892 7.995,88.892c0.441,1.429 -0.363,2.947 -1.792,3.388c-1.43,0.44 -2.948,-0.363 -3.388,-1.793c0,0 -12.626,-40.942 -8.214,-90.963c1.372,-15.552 8.762,-40.75 29.074,-51.013c6.963,-3.518 15.105,-5.346 24.018,-2.927Zm1.617,6.222c-6.986,7.818 -10.774,15.236 -13.938,26.608c-4.72,16.967 -6.182,31.545 -3.451,49.034c2.747,17.586 8.394,30.776 18.585,45.31c12.579,17.942 31.623,21.308 51.005,17.988c13.858,-2.373 27.902,-8.135 40.081,-14.67c-14.427,-7.28 -30.954,-25.426 -48.934,-67.206c-4.202,-9.765 -8.347,-18.054 -12.414,-25.047c-0.293,0.331 -0.59,0.659 -0.89,0.982c-1.016,1.097 -2.732,1.163 -3.83,0.146c-1.097,-1.016 -1.162,-2.733 -0.146,-3.83c0.65,-0.701 1.288,-1.427 1.912,-2.175c-9.898,-15.662 -19.313,-23.803 -27.98,-27.14Zm31.404,22.567c4.91,-7.345 8.081,-16.133 6.889,-24.864c-0.586,-4.294 -2.194,-7.265 -4.551,-9.102c-2.355,-1.835 -5.387,-2.52 -8.61,-2.459c-7.107,0.136 -15.128,3.862 -20.116,8.676c-0.352,0.34 -0.698,0.677 -1.038,1.014c8.646,4.01 17.899,12.218 27.426,26.735Z" style="fill:#868374;"/></g></svg>