<?xml version="1.0" encoding="UTF-8" standalone="no"?><!DOCTYPE svg PUBLIC "-//W3C//DTD SVG 1.1//EN" "http://www.w3.org/Graphics/SVG/1.1/DTD/svg11.dtd"><svg width="100%" height="100%" viewBox="0 0 1250 667" version="1.1" xmlns="http://www.w3.org/2000/svg" xmlns:xlink="http://www.w3.org/1999/xlink" xml:space="preserve" xmlns:serif="http://www.serif.com/" style="fill-rule:evenodd;clip-rule:evenodd;stroke-linejoin:round;stroke-miterlimit:2;"><rect id="Logo-KakaoBites" x="0" y="0" width="1250" height="666.667" style="fill:none;"/><g id="Logo-KakaoBites1" serif:id="Logo-KakaoBites"><rect x="0" y="0" width="1250" height="666.667" style="fill:#2b325c;"/><path d="M423.275,329.834l0,44.951c0,2.96 -1.032,5.473 -3.095,7.536c-2.064,2.064 -4.576,3.096 -7.537,3.096c-2.871,-0 -5.316,-0.942 -7.334,-2.827c-2.019,-1.884 -3.118,-4.216 -3.298,-6.998c-1.974,2.782 -4.822,5.114 -8.546,6.998c-3.723,1.885 -7.828,2.827 -12.314,2.827c-8.793,-0 -16.217,-3.185 -22.273,-9.556c-6.057,-6.37 -9.085,-14.221 -9.085,-23.552c0,-9.331 3.028,-17.181 9.085,-23.551c6.056,-6.371 13.48,-9.556 22.273,-9.556c4.486,0 8.591,0.942 12.314,2.826c3.724,1.885 6.572,4.217 8.546,6.999c0.18,-2.782 1.279,-5.114 3.298,-6.999c2.018,-1.884 4.463,-2.826 7.334,-2.826c2.961,0 5.473,1.032 7.537,3.096c2.063,2.063 3.095,4.575 3.095,7.536Zm148.444,0l0,44.951c0,2.96 -1.031,5.473 -3.095,7.536c-2.063,2.064 -4.576,3.096 -7.537,3.096c-2.871,-0 -5.316,-0.942 -7.334,-2.827c-2.019,-1.884 -3.118,-4.216 -3.297,-6.998c-1.974,2.782 -4.823,5.114 -8.546,6.998c-3.724,1.885 -7.829,2.827 -12.315,2.827c-8.792,-0 -16.217,-3.185 -22.273,-9.556c-6.056,-6.37 -9.084,-14.221 -9.084,-23.552c-0,-9.331 3.028,-17.181 9.084,-23.551c6.056,-6.371 13.481,-9.556 22.273,-9.556c4.486,0 8.591,0.942 12.315,2.826c3.723,1.885 6.572,4.217 8.546,6.999c0.179,-2.782 1.278,-5.114 3.297,-6.999c2.018,-1.884 4.463,-2.826 7.334,-2.826c2.961,0 5.474,1.032 7.537,3.096c2.064,2.063 3.095,4.575 3.095,7.536Zm-139.292,44.951l-0,-82.903c-0,-2.961 1.032,-5.473 3.095,-7.537c2.064,-2.063 4.576,-3.095 7.537,-3.095c2.961,-0 5.473,1.032 7.536,3.095c2.064,2.064 3.096,4.576 3.096,7.537l-0,53.025l24.494,-22.744c2.063,-1.974 4.396,-2.961 6.998,-2.961c2.692,0 4.957,0.92 6.797,2.759c1.839,1.839 2.758,4.105 2.758,6.797c0,2.512 -0.852,4.71 -2.557,6.594l-16.688,15.342l18.707,18.438c1.795,1.795 2.692,4.038 2.692,6.729c-0,2.692 -0.92,4.957 -2.759,6.797c-1.839,1.839 -4.105,2.759 -6.797,2.759c-2.871,-0 -5.338,-1.032 -7.402,-3.096l-26.243,-25.84l-0,18.304c-0,2.96 -1.032,5.473 -3.096,7.536c-2.063,2.064 -4.575,3.096 -7.536,3.096c-2.961,-0 -5.473,-1.032 -7.537,-3.096c-2.063,-2.063 -3.095,-4.576 -3.095,-7.536Zm204.969,-45.893c6.818,6.37 10.228,14.176 10.228,23.417c-0,9.242 -3.387,17.07 -10.161,23.485c-6.774,6.415 -15.051,9.623 -24.83,9.623c-9.78,-0 -18.057,-3.208 -24.831,-9.623c-6.774,-6.415 -10.161,-14.243 -10.161,-23.485c0,-9.241 3.387,-17.069 10.161,-23.484c6.774,-6.415 15.051,-9.623 24.831,-9.623c9.779,0 18.034,3.23 24.763,9.69Zm-308.328,51.949l-32.031,-41.182l0,34.049c0,3.23 -1.144,5.989 -3.432,8.277c-2.288,2.288 -5.047,3.432 -8.277,3.432c-3.23,-0 -5.988,-1.144 -8.276,-3.432c-2.288,-2.288 -3.432,-5.047 -3.432,-8.277l-0,-74.02c-0,-3.23 1.144,-5.989 3.432,-8.277c2.288,-2.288 5.046,-3.432 8.276,-3.432c3.23,0 5.989,1.144 8.277,3.432c2.288,2.288 3.432,5.047 3.432,8.277l0,31.896l30.147,-39.164c2.332,-2.96 5.248,-4.441 8.747,-4.441c3.051,0 5.653,1.077 7.806,3.23c2.153,2.153 3.23,4.755 3.23,7.806c0,2.781 -1.032,5.293 -3.095,7.536l-23.956,28.936l26.917,31.761c1.615,2.064 2.422,4.396 2.422,6.998c0,3.051 -1.077,5.653 -3.23,7.806c-2.153,2.153 -4.8,3.23 -7.94,3.23c-3.769,0 -6.774,-1.48 -9.017,-4.441Zm571.139,-3.634c-2.243,-1.615 -3.365,-3.723 -3.365,-6.325c0,-2.243 0.74,-4.15 2.221,-5.72c1.48,-1.57 3.342,-2.355 5.585,-2.355c1.794,-0 3.544,0.628 5.249,1.884c2.512,1.974 5.114,2.961 7.805,2.961c1.795,-0 3.208,-0.404 4.24,-1.211c1.031,-0.808 1.547,-1.929 1.547,-3.365c0,-1.615 -0.448,-2.961 -1.345,-4.037c-0.898,-1.077 -2.647,-2.154 -5.249,-3.23c-10.767,-4.576 -16.15,-11.26 -16.15,-20.053c-0,-5.383 1.974,-9.757 5.922,-13.122c3.947,-3.365 9.106,-5.047 15.477,-5.047c6.011,0 11.484,1.57 16.419,4.711c2.332,1.525 3.499,3.678 3.499,6.46c-0,2.332 -0.718,4.194 -2.154,5.585c-1.435,1.39 -3.23,2.086 -5.383,2.086c-1.256,-0 -2.602,-0.449 -4.037,-1.346c-1.526,-0.897 -3.006,-1.346 -4.442,-1.346c-2.691,0 -4.037,0.897 -4.037,2.692c-0,0.987 0.493,1.884 1.48,2.691c0.987,0.808 3.006,1.885 6.057,3.23c10.138,4.486 15.207,11.305 15.207,20.457c0,6.101 -2.063,11.125 -6.19,15.073c-4.128,3.948 -9.915,5.922 -17.362,5.922c-8.433,-0 -15.432,-2.198 -20.994,-6.595Zm-4.442,-30.281c0.359,2.782 -0.269,5.025 -1.884,6.729c-1.615,1.705 -3.813,2.557 -6.594,2.557l-37.818,0c1.974,6.371 6.684,9.556 14.131,9.556c4.397,-0 8.255,-1.212 11.574,-3.634c2.064,-1.525 4.172,-2.288 6.326,-2.288c2.691,0 4.934,0.875 6.729,2.624c1.794,1.75 2.691,3.926 2.691,6.528c0,3.05 -1.345,5.607 -4.037,7.671c-6.011,4.755 -13.862,7.133 -23.552,7.133c-10.766,-0 -19.492,-3.118 -26.176,-9.354c-6.684,-6.235 -10.027,-14.153 -10.027,-23.754c0,-9.331 3.365,-17.181 10.094,-23.551c6.729,-6.371 14.939,-9.556 24.629,-9.556c8.792,0 16.396,2.782 22.811,8.344c6.415,5.563 10.116,12.561 11.103,20.995Zm58.813,33.107c-2.512,-2.512 -3.768,-5.562 -3.768,-9.151c-0,-3.589 1.256,-6.64 3.768,-9.152c2.512,-2.512 5.518,-3.768 9.017,-3.768c3.499,-0 6.505,1.256 9.017,3.768c2.512,2.512 3.768,5.563 3.768,9.152c0,3.589 -1.256,6.639 -3.768,9.151c-2.512,2.513 -5.518,3.769 -9.017,3.769c-3.499,-0 -6.505,-1.256 -9.017,-3.769Zm-199.989,-6.863l-0,-44.951c-0,-2.961 1.031,-5.473 3.095,-7.536c2.064,-2.064 4.576,-3.096 7.537,-3.096c2.96,0 5.473,1.032 7.536,3.096c2.064,2.063 3.096,4.575 3.096,7.536l-0,44.951c-0,2.96 -1.032,5.473 -3.096,7.536c-2.063,2.064 -4.576,3.096 -7.536,3.096c-2.961,-0 -5.473,-1.032 -7.537,-3.096c-2.064,-2.063 -3.095,-4.576 -3.095,-7.536Zm36.875,-0l0,-37.01l-2.961,-0c-2.332,-0 -4.329,-0.83 -5.989,-2.49c-1.659,-1.66 -2.489,-3.656 -2.489,-5.989c-0,-2.333 0.83,-4.329 2.489,-5.989c1.66,-1.66 3.657,-2.49 5.989,-2.49l2.961,0l0,-8.748c0,-2.96 1.032,-5.473 3.096,-7.536c2.063,-2.064 4.575,-3.096 7.536,-3.096c2.961,0 5.473,1.032 7.537,3.096c2.063,2.063 3.095,4.576 3.095,7.536l0,8.748l6.998,0c2.333,0 4.33,0.83 5.989,2.49c1.66,1.66 2.49,3.656 2.49,5.989c0,2.333 -0.83,4.329 -2.49,5.989c-1.659,1.66 -3.656,2.49 -5.989,2.49l-6.998,-0l0,37.01c0,2.96 -1.032,5.473 -3.095,7.536c-2.064,2.064 -4.576,3.096 -7.537,3.096c-2.961,-0 -5.473,-1.032 -7.536,-3.096c-2.064,-2.063 -3.096,-4.576 -3.096,-7.536Zm-96.092,-85.191l13.862,0c10.318,0 18.393,2.333 24.225,6.998c5.832,4.666 8.748,10.767 8.748,18.304c0,7.895 -3.409,14.131 -10.228,18.707c5.114,1.973 9.062,4.957 11.843,8.949c2.781,3.993 4.172,8.771 4.172,14.333c0,7.985 -3.297,14.468 -9.892,19.447c-6.594,4.98 -16.082,7.47 -28.464,7.47l-14.266,-0c-3.23,-0 -5.988,-1.144 -8.276,-3.432c-2.288,-2.288 -3.432,-5.047 -3.432,-8.277l-0,-70.79c-0,-3.23 1.144,-5.989 3.432,-8.277c2.288,-2.288 5.046,-3.432 8.276,-3.432Zm-298.475,74.828c2.871,-2.871 4.307,-6.37 4.307,-10.498c-0,-4.127 -1.436,-7.626 -4.307,-10.497c-2.871,-2.871 -6.37,-4.307 -10.497,-4.307c-4.127,0 -7.627,1.436 -10.498,4.307c-2.871,2.871 -4.306,6.37 -4.306,10.497c-0,4.128 1.435,7.627 4.306,10.498c2.871,2.871 6.371,4.306 10.498,4.306c4.127,0 7.626,-1.435 10.497,-4.306Zm148.444,-0c2.871,-2.871 4.307,-6.37 4.307,-10.498c0,-4.127 -1.436,-7.626 -4.307,-10.497c-2.871,-2.871 -6.37,-4.307 -10.497,-4.307c-4.127,0 -7.626,1.436 -10.497,4.307c-2.872,2.871 -4.307,6.37 -4.307,10.497c-0,4.128 1.435,7.627 4.307,10.498c2.871,2.871 6.37,4.306 10.497,4.306c4.127,0 7.626,-1.435 10.497,-4.306Zm76.847,-0.673c2.781,-2.602 4.172,-5.877 4.172,-9.825c-0,-3.947 -1.391,-7.222 -4.172,-9.824c-2.782,-2.602 -5.967,-3.903 -9.555,-3.903c-3.589,0 -6.774,1.301 -9.556,3.903c-2.781,2.602 -4.172,5.877 -4.172,9.824c0,3.948 1.391,7.223 4.172,9.825c2.782,2.602 5.967,3.903 9.556,3.903c3.588,-0 6.773,-1.301 9.555,-3.903Zm84.893,-20.457l0,20.457l3.095,-0c8.524,-0 12.786,-3.409 12.786,-10.228c-0,-6.819 -4.262,-10.229 -12.786,-10.229l-3.095,0Zm142.523,0.808l25.84,-0c-0.898,-2.423 -2.513,-4.396 -4.845,-5.922c-2.333,-1.525 -5.025,-2.288 -8.075,-2.288c-3.051,0 -5.743,0.763 -8.075,2.288c-2.333,1.526 -3.948,3.499 -4.845,5.922Zm-142.523,-34.453l0,15.073l3.903,0c6.191,0 9.286,-2.512 9.286,-7.537c0,-5.024 -3.095,-7.536 -9.286,-7.536l-3.903,-0Zm49.392,-4.172c-2.423,-2.423 -3.634,-5.339 -3.634,-8.748c0,-3.409 1.211,-6.303 3.634,-8.681c2.422,-2.377 5.338,-3.566 8.748,-3.566c3.409,-0 6.325,1.189 8.747,3.566c2.423,2.378 3.634,5.272 3.634,8.681c0,3.409 -1.211,6.303 -3.634,8.681c-2.422,2.377 -5.338,3.566 -8.747,3.566c-3.41,-0 -6.326,-1.166 -8.748,-3.499Z" style="fill:#ec8370;fill-rule:nonzero;"/></g></svg>