<?xml version="1.0" encoding="UTF-8" standalone="no"?><!DOCTYPE svg PUBLIC "-//W3C//DTD SVG 1.1//EN" "http://www.w3.org/Graphics/SVG/1.1/DTD/svg11.dtd"><svg width="100%" height="100%" viewBox="0 0 1250 667" version="1.1" xmlns="http://www.w3.org/2000/svg" xmlns:xlink="http://www.w3.org/1999/xlink" xml:space="preserve" xmlns:serif="http://www.serif.com/" style="fill-rule:evenodd;clip-rule:evenodd;stroke-linejoin:round;stroke-miterlimit:2;"><rect id="Logo-PareEnglishCafe" x="0" y="0" width="1250" height="666.667" style="fill:none;"/><clipPath id="_clip1"><rect id="Logo-PareEnglishCafe1" serif:id="Logo-PareEnglishCafe" x="0" y="0" width="1250" height="666.667"/></clipPath><g clip-path="url(#_clip1)"><rect x="-0" y="0" width="1250" height="666.667" style="fill:#1a4dd3;"/><path d="M649.424,269.808c-0,15.823 -4.096,30.343 -12.287,43.56c-8.19,13.217 -20.104,24.014 -35.741,32.391c-15.637,8.377 -34.253,13.31 -55.847,14.799l-12.007,67.295c-4.654,25.876 -17.312,38.814 -37.975,38.814c-11.356,-0 -21.827,-3.351 -31.414,-10.053c-9.587,-6.701 -17.266,-16.94 -23.037,-30.715c-5.77,-13.776 -8.656,-30.716 -8.656,-50.82c0,-37.79 6.097,-69.855 18.29,-96.196c12.193,-26.341 28.575,-46.073 49.145,-59.197c20.57,-13.124 43.234,-19.686 67.993,-19.686c17.498,-0 32.344,3.072 44.537,9.215c12.193,6.143 21.408,14.473 27.644,24.991c6.237,10.518 9.355,22.385 9.355,35.602Zm-14.911,161.697l0,2.838l-4.158,0.77c0.381,0.514 0.696,1.145 0.946,1.893c0.249,0.748 0.374,1.54 0.374,2.376c-0,2.509 -0.866,4.482 -2.597,5.919c-1.731,1.438 -4.114,2.156 -7.151,2.156c-0.777,0 -1.481,-0.058 -2.112,-0.176c-1.115,0.69 -1.672,1.497 -1.672,2.421c-0,0.557 0.26,0.975 0.781,1.254c0.521,0.279 1.478,0.418 2.871,0.418l4.247,0c2.684,0 4.723,0.572 6.117,1.716c1.394,1.145 2.09,2.795 2.09,4.951c0,2.758 -1.137,4.885 -3.41,6.381c-2.274,1.497 -5.56,2.245 -9.858,2.245c-3.315,-0 -5.846,-0.587 -7.591,-1.761c-1.746,-1.173 -2.619,-2.845 -2.619,-5.016c0,-1.497 0.473,-2.755 1.42,-3.774c0.946,-1.02 2.27,-1.727 3.971,-2.123c-0.689,-0.294 -1.258,-0.767 -1.705,-1.42c-0.447,-0.652 -0.671,-1.338 -0.671,-2.057c-0,-0.91 0.257,-1.68 0.77,-2.31c0.513,-0.631 1.276,-1.255 2.288,-1.871c-1.261,-0.542 -2.284,-1.426 -3.069,-2.651c-0.785,-1.225 -1.177,-2.659 -1.177,-4.302c-0,-2.64 0.832,-4.687 2.497,-6.139c1.665,-1.452 4.038,-2.178 7.118,-2.178c0.69,-0 1.412,0.047 2.168,0.143c0.755,0.095 1.324,0.194 1.705,0.297l8.427,-0Zm-19.121,28.12c0,1.115 0.503,1.973 1.507,2.575c1.005,0.601 2.417,0.902 4.236,0.902c2.817,0 4.914,-0.403 6.293,-1.21c1.379,-0.807 2.069,-1.878 2.069,-3.213c-0,-1.056 -0.378,-1.808 -1.134,-2.255c-0.755,-0.447 -2.16,-0.671 -4.213,-0.671l-3.917,-0c-1.482,-0 -2.659,0.348 -3.532,1.045c-0.872,0.697 -1.309,1.639 -1.309,2.827Zm192.686,-3.344c-3.784,-0 -6.744,-1.104 -8.878,-3.312c-2.135,-2.207 -3.202,-5.247 -3.202,-9.12c0,-3.975 0.99,-7.1 2.971,-9.374c1.98,-2.273 4.701,-3.41 8.163,-3.41c3.213,-0 5.75,0.975 7.613,2.926c1.863,1.951 2.795,4.636 2.795,8.054l-0,2.794l-16.217,0c0.073,2.362 0.712,4.177 1.914,5.446c1.203,1.269 2.898,1.903 5.083,1.903c1.438,0 2.776,-0.135 4.016,-0.407c1.239,-0.271 2.571,-0.722 3.994,-1.353l-0,4.203c-1.262,0.601 -2.538,1.027 -3.829,1.276c-1.291,0.249 -2.765,0.374 -4.423,0.374Zm-127.577,-7.371c-0,2.376 -0.865,4.199 -2.596,5.468c-1.731,1.269 -4.21,1.903 -7.438,1.903c-3.242,-0 -5.845,-0.491 -7.811,-1.474l0,-4.467c2.86,1.32 5.523,1.98 7.987,1.98c3.184,0 4.775,-0.961 4.775,-2.882c0,-0.616 -0.176,-1.13 -0.528,-1.54c-0.352,-0.411 -0.931,-0.837 -1.738,-1.277c-0.807,-0.44 -1.929,-0.938 -3.367,-1.496c-2.802,-1.085 -4.698,-2.171 -5.688,-3.256c-0.99,-1.086 -1.485,-2.494 -1.485,-4.225c0,-2.083 0.84,-3.7 2.519,-4.852c1.68,-1.151 3.965,-1.727 6.855,-1.727c2.86,-0 5.566,0.579 8.119,1.738l-1.672,3.895c-2.626,-1.086 -4.834,-1.629 -6.623,-1.629c-2.729,0 -4.093,0.778 -4.093,2.333c-0,0.763 0.356,1.408 1.067,1.936c0.711,0.528 2.263,1.254 4.654,2.178c2.009,0.778 3.469,1.489 4.379,2.135c0.909,0.645 1.584,1.39 2.024,2.233c0.44,0.844 0.66,1.852 0.66,3.026Zm89.687,6.931l-1.034,-3.389l-0.176,0c-1.174,1.482 -2.355,2.49 -3.543,3.026c-1.188,0.535 -2.714,0.803 -4.577,0.803c-2.391,-0 -4.257,-0.645 -5.6,-1.936c-1.342,-1.291 -2.013,-3.118 -2.013,-5.479c0,-2.509 0.932,-4.401 2.795,-5.677c1.863,-1.276 4.701,-1.973 8.515,-2.091l4.203,-0.132l-0,-1.298c-0,-1.555 -0.363,-2.717 -1.09,-3.487c-0.726,-0.771 -1.852,-1.156 -3.377,-1.156c-1.247,0 -2.443,0.184 -3.587,0.551c-1.144,0.366 -2.244,0.799 -3.3,1.298l-1.673,-3.697c1.321,-0.689 2.766,-1.214 4.335,-1.573c1.57,-0.36 3.051,-0.539 4.445,-0.539c3.095,-0 5.431,0.675 7.008,2.024c1.577,1.35 2.365,3.469 2.365,6.359l0,16.393l-3.696,-0Zm-29.551,-28.121c-3.022,0 -5.398,1.071 -7.129,3.213c-1.731,2.141 -2.597,5.097 -2.597,8.867c0,3.946 0.833,6.931 2.498,8.956c1.665,2.024 4.074,3.036 7.228,3.036c1.364,0 2.684,-0.135 3.961,-0.407c1.276,-0.271 2.603,-0.62 3.982,-1.045l0,4.511c-2.523,0.953 -5.383,1.43 -8.581,1.43c-4.709,-0 -8.325,-1.427 -10.848,-4.28c-2.523,-2.853 -3.785,-6.935 -3.785,-12.245c0,-3.344 0.613,-6.271 1.838,-8.779c1.225,-2.509 2.996,-4.43 5.314,-5.765c2.317,-1.335 5.038,-2.003 8.163,-2.003c3.286,0 6.322,0.69 9.109,2.069l-1.892,4.379c-1.085,-0.514 -2.233,-0.965 -3.443,-1.354c-1.211,-0.388 -2.483,-0.583 -3.818,-0.583Zm-161.683,28.121l-18.197,-0l0,-32.169l18.197,-0l0,4.444l-12.938,0l-0,8.758l12.124,-0l-0,4.4l-12.124,0l-0,10.1l12.938,0l0,4.467Zm65.241,-0l-5.171,-0l0,-34.238l5.171,0l-0,34.238Zm12.564,-0l-5.171,-0l0,-24.336l5.171,-0l0,24.336Zm-49.992,-0l-5.193,-0l-0,-14.963c-0,-1.877 -0.378,-3.278 -1.133,-4.202c-0.756,-0.924 -1.955,-1.387 -3.598,-1.387c-2.186,0 -3.785,0.646 -4.797,1.937c-1.012,1.291 -1.518,3.454 -1.518,6.491l0,12.124l-5.171,-0l0,-24.336l4.049,-0l0.726,3.19l0.264,0c0.733,-1.159 1.775,-2.053 3.125,-2.684c1.349,-0.631 2.845,-0.946 4.488,-0.946c5.839,-0 8.758,2.97 8.758,8.911l-0,15.865Zm186.547,-20.42l-5.941,0l-0,20.42l-5.193,-0l-0,-20.42l-4.005,0l0,-2.42l4.005,-1.584l-0,-1.584c-0,-2.876 0.675,-5.006 2.024,-6.393c1.35,-1.386 3.411,-2.079 6.183,-2.079c1.819,0 3.609,0.301 5.369,0.902l-1.364,3.917c-1.276,-0.411 -2.494,-0.616 -3.653,-0.616c-1.173,-0 -2.028,0.363 -2.563,1.089c-0.536,0.726 -0.803,1.815 -0.803,3.268l-0,1.584l5.941,-0l-0,3.916Zm-85.815,20.42l-5.192,-0l-0,-14.963c-0,-1.877 -0.378,-3.278 -1.134,-4.202c-0.755,-0.924 -1.954,-1.387 -3.597,-1.387c-2.171,0 -3.766,0.65 -4.786,1.948c-1.019,1.298 -1.529,3.473 -1.529,6.524l-0,12.08l-5.171,-0l-0,-34.238l5.171,0l-0,8.692c-0,1.393 -0.088,2.882 -0.264,4.466l0.33,0c0.704,-1.173 1.683,-2.083 2.937,-2.728c1.254,-0.646 2.718,-0.968 4.39,-0.968c5.897,-0 8.845,2.97 8.845,8.911l0,15.865Zm54.988,-3.521c1.877,0 3.384,-0.524 4.521,-1.573c1.137,-1.049 1.706,-2.519 1.706,-4.412l-0,-2.112l-3.125,0.132c-2.435,0.088 -4.206,0.495 -5.314,1.221c-1.107,0.726 -1.661,1.837 -1.661,3.334c-0,1.085 0.323,1.925 0.968,2.519c0.646,0.594 1.614,0.891 2.905,0.891Zm-144.872,-12.938c-0,1.526 0.392,2.699 1.177,3.521c0.785,0.821 1.91,1.232 3.377,1.232c2.993,-0 4.489,-1.599 4.489,-4.797c0,-1.584 -0.37,-2.805 -1.111,-3.663c-0.741,-0.859 -1.867,-1.288 -3.378,-1.288c-1.496,0 -2.629,0.426 -3.399,1.277c-0.77,0.85 -1.155,2.09 -1.155,3.718Zm189.517,-4.401c-1.643,0 -2.959,0.521 -3.95,1.563c-0.99,1.041 -1.58,2.559 -1.771,4.554l11.046,0c-0.029,-2.009 -0.514,-3.531 -1.452,-4.565c-0.939,-1.035 -2.23,-1.552 -3.873,-1.552Zm-256.557,-103.183c38.162,-4.84 57.243,-24.666 57.243,-59.477c0,-12.286 -4.049,-22.292 -12.147,-30.017c-8.097,-7.726 -20.616,-11.588 -37.556,-11.588c-19.174,-0 -35.882,6.05 -50.122,18.15c-14.241,12.1 -25.224,28.9 -32.95,50.401c-7.725,21.501 -11.588,46.027 -11.588,73.578c0,11.541 1.163,21.78 3.49,30.715c2.327,8.936 5.306,15.87 8.936,20.803c3.63,4.933 7.12,7.4 10.471,7.4c4.654,-0 8.191,-6.423 10.611,-19.267l9.215,-52.775c-7.261,-1.117 -10.425,-1.583 -9.494,-1.396c-5.585,-0.931 -9.215,-2.653 -10.89,-5.166c-1.676,-2.513 -2.514,-5.724 -2.514,-9.634c0,-4.095 1.164,-7.353 3.491,-9.773c2.327,-2.42 5.538,-3.63 9.633,-3.63c1.862,0 3.258,0.093 4.189,0.279c4.468,0.745 7.911,1.21 10.331,1.397c2.42,-14.521 5.864,-33.974 10.332,-58.36c1.117,-6.329 3.677,-10.843 7.679,-13.543c4.002,-2.699 8.703,-4.049 14.101,-4.049c6.143,0 10.564,1.164 13.264,3.491c2.699,2.327 4.049,6.003 4.049,11.029c-0,2.979 -0.187,5.399 -0.559,7.261l-9.215,54.171Zm100.705,93.26c0,-0.924 0.253,-1.636 0.759,-2.135c0.506,-0.498 1.229,-0.748 2.168,-0.748c0.909,0 1.617,0.25 2.123,0.748c0.506,0.499 0.759,1.211 0.759,2.135c0,0.88 -0.253,1.573 -0.759,2.079c-0.506,0.506 -1.214,0.759 -2.123,0.759c-0.939,0 -1.662,-0.253 -2.168,-0.759c-0.506,-0.506 -0.759,-1.199 -0.759,-2.079Zm30.134,-28.693c-1.886,1.768 -3.815,3.401 -5.785,4.9c-5.026,3.824 -9.887,5.736 -14.585,5.736c-3.605,-0 -6.91,-1.229 -9.914,-3.687c-3.004,-2.458 -5.271,-5.818 -6.8,-10.078c-5.681,9.177 -12.837,13.765 -21.467,13.765c-6.774,-0 -12.181,-2.458 -16.223,-7.374c-4.043,-4.916 -6.064,-11.362 -6.064,-19.337c0,-8.74 2.021,-17.015 6.064,-24.826c4.042,-7.811 9.422,-14.093 16.141,-18.845c6.718,-4.752 13.847,-7.128 21.385,-7.128c2.403,-0 4.015,0.464 4.834,1.392c0.819,0.929 1.502,2.595 2.048,4.999c2.294,-0.437 4.698,-0.656 7.21,-0.656c5.354,0 8.03,1.912 8.03,5.735c0,2.295 -0.819,7.757 -2.458,16.387c-2.513,12.564 -3.769,21.303 -3.769,26.22c0,1.638 0.41,2.949 1.229,3.932c0.819,0.984 1.885,1.475 3.196,1.475c2.075,0 4.588,-1.338 7.538,-4.015c2.14,-1.942 4.826,-4.761 8.059,-8.457c0.263,-13.117 2.274,-25.62 6.033,-37.508c0.984,-3.168 2.595,-5.49 4.834,-6.964c2.24,-1.475 5.381,-2.213 9.423,-2.213c2.185,0 3.714,0.273 4.588,0.82c0.874,0.546 1.311,1.584 1.311,3.113c0,1.748 -0.819,5.681 -2.458,11.799c-1.092,4.37 -1.966,8.193 -2.622,11.471c-0.655,3.277 -1.201,7.319 -1.638,12.126c3.605,-9.395 7.647,-17.042 12.126,-22.942c4.479,-5.899 8.876,-10.105 13.191,-12.618c4.316,-2.512 8.276,-3.769 11.881,-3.769c7.101,0 10.652,3.551 10.652,10.652c-0,1.42 -0.492,4.861 -1.475,10.324c-0.874,4.369 -1.311,7.101 -1.311,8.193c-0,3.824 1.365,5.736 4.097,5.736c1.145,-0 2.413,-0.337 3.802,-1.011c0.747,-4.424 2.102,-8.648 4.063,-12.673c3.168,-6.5 7.566,-11.662 13.192,-15.485c5.626,-3.824 11.99,-5.736 19.091,-5.736c6.336,0 11.416,1.885 15.239,5.654c3.824,3.769 5.736,8.876 5.736,15.322c-0,7.538 -2.704,14.01 -8.112,19.418c-5.407,5.408 -14.611,9.696 -27.612,12.864c2.622,5.025 7.047,7.538 13.274,7.538c4.479,-0 8.166,-1.038 11.061,-3.114c2.895,-2.075 6.254,-5.571 10.078,-10.487c1.311,-1.639 2.786,-2.458 4.424,-2.458c1.421,-0 2.54,0.655 3.36,1.966c0.819,1.311 1.229,3.114 1.229,5.408c-0,3.933 -0.929,7.319 -2.786,10.16c-3.059,4.697 -7.074,8.357 -12.044,10.979c-4.971,2.622 -10.898,3.933 -17.78,3.933c-10.488,-0 -18.627,-3.141 -24.417,-9.423c-4.028,-4.37 -6.655,-9.811 -7.881,-16.323c-3.237,1.323 -6.618,1.985 -10.145,1.985c-5.79,-0 -10.187,-1.475 -13.191,-4.425c-3.004,-2.949 -4.506,-6.937 -4.506,-11.962c-0,-1.639 0.163,-3.278 0.491,-4.916c0.219,-2.185 0.328,-3.66 0.328,-4.425c-0,-1.748 -0.601,-2.622 -1.803,-2.622c-1.638,0 -3.796,1.83 -6.473,5.49c-2.676,3.66 -5.325,8.494 -7.947,14.502c-2.622,6.009 -4.752,12.345 -6.391,19.009c-1.202,5.135 -2.595,8.603 -4.179,10.406c-1.584,1.803 -4.069,2.704 -7.456,2.704c-4.151,-0 -7.074,-2.185 -8.767,-6.555c-0.454,-1.172 -0.847,-2.532 -1.179,-4.081Zm-52.652,-5.915c2.403,0 4.698,-1.42 6.882,-4.261c2.185,-2.84 3.769,-6.609 4.753,-11.307l6.063,-30.152c-4.588,0.11 -8.822,1.83 -12.7,5.162c-3.878,3.332 -6.964,7.73 -9.259,13.192c-2.294,5.462 -3.441,11.252 -3.441,17.37c0,3.387 0.683,5.899 2.048,7.538c1.366,1.639 3.251,2.458 5.654,2.458Zm157.315,-44.572c-4.042,-0 -7.456,2.348 -10.242,7.046c-2.786,4.698 -4.179,10.378 -4.179,17.042l0,0.328c6.446,-1.529 11.526,-3.824 15.24,-6.882c3.715,-3.059 5.572,-6.61 5.572,-10.652c-0,-2.076 -0.574,-3.742 -1.721,-4.998c-1.147,-1.256 -2.704,-1.884 -4.67,-1.884Z" style="fill:#fff;fill-rule:nonzero;"/></g></svg>