<?xml version="1.0" encoding="UTF-8" standalone="no"?><!DOCTYPE svg PUBLIC "-//W3C//DTD SVG 1.1//EN" "http://www.w3.org/Graphics/SVG/1.1/DTD/svg11.dtd"><svg width="100%" height="100%" viewBox="0 0 134 134" version="1.1" xmlns="http://www.w3.org/2000/svg" xmlns:xlink="http://www.w3.org/1999/xlink" xml:space="preserve" xmlns:serif="http://www.serif.com/" style="fill-rule:evenodd;clip-rule:evenodd;stroke-linejoin:round;stroke-miterlimit:2;"><rect id="Brid-Studio-Logo" x="0" y="0" width="133.333" height="133.333" style="fill:none;"/><g id="Brid-Studio-Logo1" serif:id="Brid-Studio-Logo"><path d="M133.333,20.833c0,-11.498 -9.335,-20.833 -20.833,-20.833l-91.667,0c-11.498,0 -20.833,9.335 -20.833,20.833l0,91.667c0,11.498 9.335,20.833 20.833,20.833l91.667,0c11.498,0 20.833,-9.335 20.833,-20.833l0,-91.667Z" style="fill:#fff;"/><path d="M116.286,74.505l-20.072,-34.999l11.697,-9.207c0.71,-0.558 0.971,-2.319 0.03,-3.258c-0.756,-0.755 -2.461,-0.773 -4.036,-0.773l-19.378,0c-0.501,0 -2.365,0.538 -3.573,1.766c-1.117,1.135 -1.592,2.937 -1.771,3.58l-5.661,20.331l-53.213,-25.317c-0.913,-0.436 -1.98,-0.065 -2.723,0.633c-0.802,0.745 -1.213,1.862 -0.678,2.767l44.167,74.293c1.203,2.028 2.03,2.276 3.316,2.607c2.182,0.564 3.912,-0.68 7.179,-2.589l35.858,-20.965c1.053,-0.616 6.154,-3.411 8.267,-5.473c1.647,-1.617 0.734,-3.147 0.591,-3.396Zm-51.121,29.061l-42.489,-71.488l50.993,24.263l-1.104,3.883l-40.088,-19.139l32.923,54.61l18.236,-65.517l18.117,0l-17.886,14.072l-14.748,52.422l37.924,-21.866l-18.022,-31.767l3.283,-2.51l20.261,35.306l-47.4,27.731Zm21.565,-69.482l-1.085,3.857l4.814,-3.857l-3.729,-0Z" style="fill:#151515;"/></g></svg>